<svg xmlns="http://www.w3.org/2000/svg" width="13" height="11" viewBox="0 0 13 11">
    <path fill="#3359DB" fill-rule="evenodd" stroke="#3359DB" stroke-width=".2" d="M6.762 8.227c-.003.004-.009.002-.013.005a.361.361 0 0 1-.237.099h-.003a.363.363 0 0 1-.272-.104L4.04 5.663a.37.37 0 0 1 .524-.524l1.57 1.833V1.366a.367.367 0 0 1 .734 0v5.606l1.57-1.833a.37.37 0 0 1 .523.524L6.762 8.227zm4.871 2.306H1.367A.366.366 0 0 1 1 10.166V7.233a.367.367 0 0 1 .733 0V9.8h9.534V7.233a.367.367 0 0 1 .733 0v2.933a.366.366 0 0 1-.367.367z"/>
</svg>
